<svg width="48" height="48" viewBox="0 0 48 48" fill="none" xmlns="http://www.w3.org/2000/svg">
<rect width="48" height="48" rx="8" fill="url(#paint0_linear_5478_83314)"/>
<path d="M36.8673 10.0645H30.923C30.5468 10.0645 30.2419 10.3733 30.2419 10.7544V13.3759H27.3191C25.815 13.3775 24.5962 14.612 24.5946 16.1354V20.5129H22.5139C22.1377 20.5129 21.8328 20.8217 21.8328 21.2028V23.3101H17.7585V20.6886C17.7585 20.3075 17.4535 19.9987 17.0773 19.9987H11.1328C10.7566 19.9987 10.4517 20.3075 10.4517 20.6886V27.3114C10.4517 27.6924 10.7566 28.0013 11.1328 28.0013H17.0773C17.4535 28.0013 17.7585 27.6924 17.7585 27.3114V24.6899H21.8328V26.7972C21.8328 27.1783 22.1377 27.4871 22.5139 27.4871H24.5946V31.8646C24.5962 33.388 25.815 34.6225 27.3191 34.6241H30.2419V37.2456C30.2419 37.6267 30.5468 37.9355 30.923 37.9355H36.8673C37.2435 37.9355 37.5484 37.6267 37.5484 37.2456V30.6228C37.5484 30.2418 37.2435 29.9329 36.8673 29.9329H30.923C30.5468 29.9329 30.2419 30.2418 30.2419 30.6228V33.2443H27.3191C26.567 33.2435 25.9577 32.6261 25.9569 31.8646V27.4871H27.7401C28.1163 27.4871 28.4212 27.1783 28.4212 26.7972V21.2028C28.4212 20.8217 28.1163 20.5129 27.7401 20.5129H25.9569V16.1354C25.9577 15.3739 26.567 14.7565 27.3191 14.7557H30.2419V17.3772C30.2419 17.7582 30.5468 18.0671 30.923 18.0671H36.8673C37.2435 18.0671 37.5484 17.7582 37.5484 17.3772V10.7544C37.5484 10.3733 37.2435 10.0645 36.8673 10.0645Z" fill="white"/>
<defs>
<linearGradient id="paint0_linear_5478_83314" x1="24" y1="0" x2="24" y2="48" gradientUnits="userSpaceOnUse">
<stop stop-color="#FCA549"/>
<stop offset="1" stop-color="#F39531"/>
</linearGradient>
</defs>
</svg>
