<svg width="24" height="24" viewBox="0 0 24 24" fill="none" xmlns="http://www.w3.org/2000/svg">
<path fill-rule="evenodd" clip-rule="evenodd" d="M12.2908 8.7058L15.8308 12.2458L12.2908 15.8358C12.1045 16.0232 12 16.2766 12 16.5408C12 16.805 12.1045 17.0584 12.2908 17.2458C12.3842 17.3385 12.495 17.4118 12.6169 17.4616C12.7387 17.5113 12.8692 17.5366 13.0008 17.5358C13.1324 17.5366 13.2629 17.5113 13.3847 17.4616C13.5065 17.4118 13.6173 17.3385 13.7108 17.2458L17.9508 12.9558C18.0445 12.8628 18.1189 12.7522 18.1697 12.6304C18.2204 12.5085 18.2466 12.3778 18.2466 12.2458C18.2466 12.1138 18.2204 11.9831 18.1697 11.8612C18.1189 11.7394 18.0445 11.6288 17.9508 11.5358L13.7108 7.2958C13.6178 7.20207 13.5072 7.12768 13.3854 7.07691C13.2635 7.02614 13.1328 7 13.0008 7C12.8688 7 12.7381 7.02614 12.6162 7.07691C12.4943 7.12768 12.3837 7.20207 12.2908 7.2958C12.1045 7.48316 12 7.73661 12 8.0008C12 8.26498 12.1045 8.51844 12.2908 8.7058ZM6.29078 8.7058L9.83078 12.2458L6.29078 15.8358C6.10453 16.0232 5.99999 16.2766 5.99999 16.5408C5.99999 16.805 6.10453 17.0584 6.29078 17.2458C6.38422 17.3385 6.49504 17.4118 6.61688 17.4616C6.73872 17.5113 6.86918 17.5366 7.00078 17.5358C7.13239 17.5366 7.26285 17.5113 7.38469 17.4616C7.50653 17.4118 7.61734 17.3385 7.71078 17.2458L11.9508 12.9558C12.0445 12.8628 12.1189 12.7522 12.1697 12.6304C12.2204 12.5085 12.2466 12.3778 12.2466 12.2458C12.2466 12.1138 12.2204 11.9831 12.1697 11.8612C12.1189 11.7394 12.0445 11.6288 11.9508 11.5358L7.71078 7.2958C7.61782 7.20207 7.50722 7.12768 7.38536 7.07691C7.2635 7.02614 7.1328 7 7.00078 7C6.86877 7 6.73807 7.02614 6.61621 7.07691C6.49435 7.12768 6.38375 7.20207 6.29078 7.2958C6.10453 7.48316 5.99999 7.73661 5.99999 8.0008C5.99999 8.26498 6.10453 8.51844 6.29078 8.7058Z" fill="white"/>
</svg>
