<svg width="20" height="20" viewBox="0 0 20 20" fill="none" xmlns="http://www.w3.org/2000/svg">
<path d="M10.2418 4.3417L11.4918 5.5917C11.5693 5.6698 11.6615 5.7318 11.763 5.77411C11.8646 5.81641 11.9735 5.8382 12.0835 5.8382C12.1935 5.8382 12.3024 5.81641 12.404 5.77411C12.5055 5.7318 12.5977 5.6698 12.6752 5.5917C12.8016 5.45895 12.8808 5.2882 12.9004 5.10591C12.92 4.92361 12.8789 4.73995 12.7835 4.58336H15.8335C16.0545 4.58336 16.2665 4.49557 16.4228 4.33929C16.579 4.18301 16.6668 3.97104 16.6668 3.75003C16.6668 3.52902 16.579 3.31706 16.4228 3.16077C16.2665 3.00449 16.0545 2.9167 15.8335 2.9167H12.7835C12.8789 2.76012 12.92 2.57645 12.9004 2.39415C12.8808 2.21186 12.8016 2.04111 12.6752 1.90836C12.5977 1.83026 12.5055 1.76826 12.404 1.72595C12.3024 1.68365 12.1935 1.66187 12.0835 1.66187C11.9735 1.66187 11.8646 1.68365 11.763 1.72595C11.6615 1.76826 11.5693 1.83026 11.4918 1.90836L10.2418 3.15836C10.166 3.23762 10.1065 3.33107 10.0668 3.43336C9.98348 3.63625 9.98348 3.86381 10.0668 4.0667C10.1065 4.16899 10.166 4.26244 10.2418 4.3417ZM19.1002 7.60003C19.0605 7.49774 19.001 7.40428 18.9252 7.32503L17.6752 6.07503C17.5977 5.99692 17.5055 5.93493 17.404 5.89262C17.3024 5.85031 17.1935 5.82853 17.0835 5.82853C16.9735 5.82853 16.8646 5.85031 16.763 5.89262C16.6615 5.93493 16.5693 5.99692 16.4918 6.07503C16.3654 6.20778 16.2862 6.37853 16.2666 6.56082C16.247 6.74312 16.2881 6.92678 16.3835 7.08336H13.3335C13.1125 7.08336 12.9005 7.17116 12.7442 7.32744C12.588 7.48372 12.5002 7.69568 12.5002 7.9167C12.5002 8.13771 12.588 8.34967 12.7442 8.50595C12.9005 8.66223 13.1125 8.75003 13.3335 8.75003H16.3835C16.2881 8.90661 16.247 9.09028 16.2666 9.27257C16.2862 9.45487 16.3654 9.62562 16.4918 9.75836C16.5693 9.83647 16.6615 9.89847 16.763 9.94077C16.8646 9.98308 16.9735 10.0049 17.0835 10.0049C17.1935 10.0049 17.3024 9.98308 17.404 9.94077C17.5055 9.89847 17.5977 9.83647 17.6752 9.75836L18.9252 8.50836C19.001 8.42911 19.0605 8.33566 19.1002 8.23336C19.1835 8.03048 19.1835 7.80292 19.1002 7.60003ZM9.16683 8.33336C8.50756 8.33336 7.86309 8.52886 7.31493 8.89513C6.76677 9.2614 6.33952 9.782 6.08723 10.3911C5.83494 11.0002 5.76893 11.6704 5.89755 12.317C6.02616 12.9636 6.34363 13.5575 6.80981 14.0237C7.27598 14.4899 7.86993 14.8074 8.51653 14.936C9.16313 15.0646 9.83335 14.9986 10.4424 14.7463C11.0515 14.494 11.5721 14.0668 11.9384 13.5186C12.3047 12.9704 12.5002 12.326 12.5002 11.6667C12.5002 10.7826 12.149 9.9348 11.5239 9.30967C10.8987 8.68455 10.0509 8.33336 9.16683 8.33336ZM9.16683 13.3334C8.83719 13.3334 8.51496 13.2356 8.24088 13.0525C7.9668 12.8693 7.75318 12.609 7.62703 12.3045C7.50088 12 7.46788 11.6648 7.53219 11.3415C7.5965 11.0182 7.75523 10.7213 7.98832 10.4882C8.22141 10.2551 8.51838 10.0964 8.84168 10.0321C9.16498 9.96775 9.50009 10.0008 9.80464 10.1269C10.1092 10.253 10.3695 10.4667 10.5526 10.7407C10.7357 11.0148 10.8335 11.3371 10.8335 11.6667C10.8335 12.1087 10.6579 12.5326 10.3453 12.8452C10.0328 13.1578 9.60886 13.3334 9.16683 13.3334ZM16.6668 10.8334C16.4458 10.8334 16.2339 10.9212 16.0776 11.0774C15.9213 11.2337 15.8335 11.4457 15.8335 11.6667V15.8334C15.8335 16.0544 15.7457 16.2663 15.5894 16.4226C15.4331 16.5789 15.2212 16.6667 15.0002 16.6667H3.3335C3.11248 16.6667 2.90052 16.5789 2.74424 16.4226C2.58796 16.2663 2.50016 16.0544 2.50016 15.8334V9.1667C2.50016 8.94568 2.58796 8.73372 2.74424 8.57744C2.90052 8.42116 3.11248 8.33336 3.3335 8.33336H5.00016C5.18293 8.34231 5.36355 8.29085 5.51416 8.18693C5.66477 8.08301 5.77699 7.9324 5.8335 7.75836L6.2835 6.40836C6.33559 6.24785 6.43518 6.10694 6.56911 6.00427C6.70303 5.90159 6.86497 5.842 7.0335 5.83336H8.3335C8.55451 5.83336 8.76647 5.74557 8.92275 5.58929C9.07903 5.43301 9.16683 5.22104 9.16683 5.00003C9.16683 4.77902 9.07903 4.56706 8.92275 4.41078C8.76647 4.25449 8.55451 4.1667 8.3335 4.1667H7.0335C6.50734 4.16651 5.99453 4.33234 5.5681 4.64056C5.14167 4.94879 4.82336 5.3837 4.6585 5.88336L4.40016 6.6667H3.3335C2.67045 6.6667 2.03457 6.93009 1.56573 7.39893C1.09689 7.86777 0.833496 8.50366 0.833496 9.1667V15.8334C0.833496 16.4964 1.09689 17.1323 1.56573 17.6011C2.03457 18.07 2.67045 18.3334 3.3335 18.3334H15.0002C15.6632 18.3334 16.2991 18.07 16.7679 17.6011C17.2368 17.1323 17.5002 16.4964 17.5002 15.8334V11.6667C17.5002 11.4457 17.4124 11.2337 17.2561 11.0774C17.0998 10.9212 16.8878 10.8334 16.6668 10.8334Z" fill="#959595"/>
</svg>
