<svg width="19" height="18" viewBox="0 0 19 18" fill="none" xmlns="http://www.w3.org/2000/svg">
<path d="M14.75 4.87496H13.79L13.55 4.12496C13.3944 3.68488 13.1058 3.30408 12.7242 3.03533C12.3425 2.76657 11.8868 2.62316 11.42 2.62496H7.58C7.10866 2.62584 6.6495 2.77472 6.26732 3.05058C5.88515 3.32645 5.59926 3.71537 5.45 4.16246L5.21 4.91246H4.25C3.65326 4.91246 3.08097 5.14951 2.65901 5.57147C2.23705 5.99342 2 6.56572 2 7.16246V13.1625C2 13.7592 2.23705 14.3315 2.65901 14.7534C3.08097 15.1754 3.65326 15.4125 4.25 15.4125H14.75C15.3467 15.4125 15.919 15.1754 16.341 14.7534C16.7629 14.3315 17 13.7592 17 13.1625V7.16246C17.005 6.86384 16.9505 6.56722 16.8396 6.2899C16.7288 6.01257 16.5638 5.76009 16.3544 5.54717C16.145 5.33425 15.8952 5.16515 15.6198 5.04974C15.3443 4.93433 15.0487 4.87491 14.75 4.87496ZM15.5 13.125C15.5 13.3239 15.421 13.5146 15.2803 13.6553C15.1397 13.7959 14.9489 13.875 14.75 13.875H4.25C4.05109 13.875 3.86032 13.7959 3.71967 13.6553C3.57902 13.5146 3.5 13.3239 3.5 13.125V7.12496C3.5 6.92604 3.57902 6.73528 3.71967 6.59463C3.86032 6.45397 4.05109 6.37496 4.25 6.37496H5.75C5.91355 6.38349 6.0754 6.33826 6.21083 6.24617C6.34625 6.15408 6.44782 6.02019 6.5 5.86496L6.905 4.63496C6.95531 4.48599 7.05117 4.3566 7.17903 4.26509C7.30688 4.17357 7.46027 4.12455 7.6175 4.12496H11.4575C11.6147 4.12455 11.7681 4.17357 11.896 4.26509C12.0238 4.3566 12.1197 4.48599 12.17 4.63496L12.575 5.86496C12.6231 6.00801 12.7133 6.13322 12.8337 6.22421C12.9542 6.3152 13.0992 6.36774 13.25 6.37496H14.75C14.9489 6.37496 15.1397 6.45397 15.2803 6.59463C15.421 6.73528 15.5 6.92604 15.5 7.12496V13.125ZM9.5 6.37496C8.90666 6.37496 8.32664 6.5509 7.83329 6.88055C7.33994 7.21019 6.95542 7.67873 6.72836 8.22691C6.5013 8.77508 6.44189 9.37828 6.55764 9.96023C6.6734 10.5422 6.95912 11.0767 7.37868 11.4963C7.79824 11.9158 8.33279 12.2016 8.91473 12.3173C9.49667 12.4331 10.0999 12.3737 10.6481 12.1466C11.1962 11.9195 11.6648 11.535 11.9944 11.0417C12.3241 10.5483 12.5 9.9683 12.5 9.37496C12.5 8.57931 12.1839 7.81624 11.6213 7.25364C11.0587 6.69103 10.2956 6.37496 9.5 6.37496ZM9.5 10.875C9.20333 10.875 8.91332 10.787 8.66665 10.6222C8.41997 10.4573 8.22771 10.2231 8.11418 9.94898C8.00065 9.67489 7.97094 9.37329 8.02882 9.08232C8.0867 8.79135 8.22956 8.52407 8.43934 8.3143C8.64912 8.10452 8.91639 7.96166 9.20736 7.90378C9.49834 7.8459 9.79994 7.87561 10.074 7.98914C10.3481 8.10267 10.5824 8.29493 10.7472 8.5416C10.912 8.78827 11 9.07828 11 9.37496C11 9.77278 10.842 10.1543 10.5607 10.4356C10.2794 10.7169 9.89782 10.875 9.5 10.875Z" fill="#959595"/>
</svg>
