<svg width="20" height="20" viewBox="0 0 20 20" fill="none" xmlns="http://www.w3.org/2000/svg">
<path d="M6.66655 9.16669C6.50174 9.16669 6.34062 9.21556 6.20358 9.30713C6.06654 9.3987 5.95973 9.52885 5.89666 9.68112C5.83358 9.83339 5.81708 10.0009 5.84923 10.1626C5.88139 10.3242 5.96076 10.4727 6.0773 10.5893C6.19384 10.7058 6.34233 10.7852 6.50398 10.8173C6.66563 10.8495 6.83319 10.833 6.98546 10.7699C7.13773 10.7068 7.26788 10.6 7.35945 10.463C7.45101 10.326 7.49989 10.1648 7.49989 10C7.49989 9.77901 7.41209 9.56705 7.25581 9.41076C7.09953 9.25448 6.88757 9.16669 6.66655 9.16669ZM9.99989 9.16669C9.83507 9.16669 9.67395 9.21556 9.53691 9.30713C9.39987 9.3987 9.29306 9.52885 9.22999 9.68112C9.16692 9.83339 9.15041 10.0009 9.18257 10.1626C9.21472 10.3242 9.29409 10.4727 9.41063 10.5893C9.52718 10.7058 9.67566 10.7852 9.83731 10.8173C9.99896 10.8495 10.1665 10.833 10.3188 10.7699C10.4711 10.7068 10.6012 10.6 10.6928 10.463C10.7843 10.326 10.8332 10.1648 10.8332 10C10.8332 9.77901 10.7454 9.56705 10.5891 9.41076C10.4329 9.25448 10.2209 9.16669 9.99989 9.16669ZM13.3332 9.16669C13.1684 9.16669 13.0073 9.21556 12.8702 9.30713C12.7332 9.3987 12.6264 9.52885 12.5633 9.68112C12.5002 9.83339 12.4837 10.0009 12.5159 10.1626C12.5481 10.3242 12.6274 10.4727 12.744 10.5893C12.8605 10.7058 13.009 10.7852 13.1706 10.8173C13.3323 10.8495 13.4999 10.833 13.6521 10.7699C13.8044 10.7068 13.9345 10.6 14.0261 10.463C14.1177 10.326 14.1666 10.1648 14.1666 10C14.1666 9.77901 14.0788 9.56705 13.9225 9.41076C13.7662 9.25448 13.5542 9.16669 13.3332 9.16669ZM9.99989 1.66669C8.90554 1.66669 7.82191 1.88224 6.81086 2.30102C5.79981 2.71981 4.88115 3.33364 4.10733 4.10746C2.54453 5.67027 1.66656 7.78988 1.66656 10C1.65927 11.9243 2.32555 13.7905 3.54989 15.275L1.88322 16.9417C1.76759 17.0589 1.68926 17.2077 1.65812 17.3693C1.62697 17.531 1.64441 17.6983 1.70822 17.85C1.77744 18 1.88964 18.126 2.03059 18.212C2.17155 18.2981 2.33489 18.3403 2.49989 18.3334H9.99989C12.21 18.3334 14.3296 17.4554 15.8924 15.8926C17.4552 14.3298 18.3332 12.2102 18.3332 10C18.3332 7.78988 17.4552 5.67027 15.8924 4.10746C14.3296 2.54466 12.21 1.66669 9.99989 1.66669ZM9.99989 16.6667H4.50822L5.28322 15.8917C5.36196 15.8145 5.4246 15.7225 5.46752 15.6209C5.51043 15.5193 5.53276 15.4103 5.53322 15.3C5.53009 15.0802 5.44023 14.8705 5.28322 14.7167C4.19204 13.6267 3.51253 12.1921 3.36046 10.6573C3.20839 9.12256 3.59317 7.58253 4.44924 6.29962C5.30531 5.01672 6.57971 4.07032 8.05532 3.62166C9.53092 3.17301 11.1164 3.24986 12.5417 3.83911C13.967 4.42837 15.1439 5.49358 15.8719 6.85326C16.5999 8.21294 16.8339 9.78297 16.5342 11.2959C16.2344 12.8087 15.4193 14.1709 14.2278 15.1502C13.0364 16.1295 11.5422 16.6655 9.99989 16.6667Z" fill="black"/>
</svg>
