<svg width="20" height="20" viewBox="0 0 20 20" fill="none" xmlns="http://www.w3.org/2000/svg">
<path d="M4.16684 16.6715H7.70018C7.80985 16.6722 7.91857 16.6512 8.0201 16.6097C8.12163 16.5682 8.21398 16.5071 8.29184 16.4299L14.0585 10.6549L16.4252 8.33821C16.5033 8.26074 16.5653 8.16857 16.6076 8.06702C16.6499 7.96547 16.6717 7.85655 16.6717 7.74654C16.6717 7.63653 16.6499 7.52761 16.6076 7.42606C16.5653 7.32451 16.5033 7.23234 16.4252 7.15487L12.8918 3.57987C12.8144 3.50177 12.7222 3.43977 12.6207 3.39746C12.5191 3.35516 12.4102 3.33337 12.3002 3.33337C12.1902 3.33337 12.0812 3.35516 11.9797 3.39746C11.8781 3.43977 11.786 3.50177 11.7085 3.57987L9.35851 5.93821L3.57518 11.7132C3.49794 11.7911 3.43684 11.8834 3.39537 11.985C3.3539 12.0865 3.33288 12.1952 3.33351 12.3049V15.8382C3.33351 16.0592 3.42131 16.2712 3.57759 16.4275C3.73387 16.5837 3.94583 16.6715 4.16684 16.6715ZM12.3002 5.34654L14.6585 7.70487L13.4752 8.88821L11.1168 6.52987L12.3002 5.34654ZM5.00018 12.6465L9.94184 7.70487L12.3002 10.0632L7.35851 15.0049H5.00018V12.6465Z" fill="#959595"/>
</svg>
