<svg width="21" height="20" viewBox="0 0 21 20" fill="none" xmlns="http://www.w3.org/2000/svg">
<path d="M9.61649 5.06662C9.9088 5.02181 10.2041 4.99952 10.4998 4.99995C13.1498 4.99995 15.6415 6.90828 17.0915 9.99995C16.8697 10.4704 16.6193 10.9269 16.3415 11.3666C16.2533 11.5031 16.207 11.6624 16.2082 11.825C16.21 12.0068 16.2713 12.1831 16.3827 12.3268C16.4941 12.4706 16.6495 12.574 16.8251 12.6212C17.0008 12.6684 17.187 12.6569 17.3555 12.5883C17.524 12.5198 17.6654 12.398 17.7582 12.2416C18.1464 11.6316 18.4837 10.9905 18.7665 10.325C18.8112 10.221 18.8343 10.109 18.8343 9.99578C18.8343 9.8826 18.8112 9.7706 18.7665 9.66662C17.0832 5.75828 13.9165 3.33328 10.4998 3.33328C10.1087 3.33131 9.71823 3.36478 9.33316 3.43328C9.22373 3.45189 9.11903 3.49186 9.02504 3.55093C8.93106 3.61 8.84963 3.687 8.7854 3.77754C8.72117 3.86807 8.67541 3.97037 8.65072 4.0786C8.62602 4.18682 8.62289 4.29885 8.6415 4.40828C8.6601 4.51772 8.70008 4.62242 8.75914 4.7164C8.81821 4.81039 8.89521 4.89182 8.98575 4.95605C9.07628 5.02027 9.17858 5.06604 9.28681 5.09073C9.39503 5.11542 9.50706 5.11855 9.61649 5.09995V5.06662ZM3.5915 1.90828C3.5138 1.83059 3.42155 1.76895 3.32004 1.7269C3.21852 1.68485 3.10971 1.66321 2.99983 1.66321C2.88995 1.66321 2.78114 1.68485 2.67962 1.7269C2.5781 1.76895 2.48586 1.83059 2.40816 1.90828C2.25124 2.0652 2.16309 2.27803 2.16309 2.49995C2.16309 2.72187 2.25124 2.9347 2.40816 3.09162L4.9915 5.66662C3.81281 6.80122 2.87471 8.16161 2.23316 9.66662C2.18728 9.77176 2.16359 9.88523 2.16359 9.99995C2.16359 10.1147 2.18728 10.2281 2.23316 10.3333C3.9165 14.2416 7.08316 16.6666 10.4998 16.6666C11.9974 16.6563 13.4596 16.2104 14.7082 15.3833L17.4082 18.0916C17.4856 18.1697 17.5778 18.2317 17.6793 18.274C17.7809 18.3163 17.8898 18.3381 17.9998 18.3381C18.1098 18.3381 18.2188 18.3163 18.3203 18.274C18.4219 18.2317 18.514 18.1697 18.5915 18.0916C18.6696 18.0141 18.7316 17.922 18.7739 17.8204C18.8162 17.7189 18.838 17.61 18.838 17.5C18.838 17.3899 18.8162 17.281 18.7739 17.1795C18.7316 17.0779 18.6696 16.9858 18.5915 16.9083L3.5915 1.90828ZM8.89149 9.56662L10.9332 11.6083C10.7923 11.6487 10.6463 11.6683 10.4998 11.6666C10.0578 11.6666 9.63388 11.491 9.32132 11.1785C9.00876 10.8659 8.83316 10.442 8.83316 9.99995C8.83146 9.85344 8.85111 9.70746 8.89149 9.56662ZM10.4998 15C7.84983 15 5.35816 13.0916 3.9165 9.99995C4.4549 8.81141 5.21906 7.73877 6.1665 6.84162L7.6415 8.33328C7.29503 8.96561 7.16295 9.69324 7.26504 10.407C7.36714 11.1208 7.69793 11.7822 8.20777 12.292C8.71761 12.8019 9.37902 13.1326 10.0928 13.2347C10.8065 13.3368 11.5342 13.2047 12.1665 12.8583L13.4915 14.1666C12.5841 14.7007 11.5527 14.988 10.4998 15Z" fill="#959595"/>
</svg>
