<svg width="22" height="22" viewBox="0 0 22 22" fill="none" xmlns="http://www.w3.org/2000/svg">
<path d="M16.5 16.5C16.2569 16.5 16.0237 16.5966 15.8518 16.7685C15.6799 16.9404 15.5833 17.1735 15.5833 17.4166C15.5833 17.6598 15.4868 17.8929 15.3148 18.0648C15.1429 18.2367 14.9098 18.3333 14.6667 18.3333H5.5C5.25688 18.3333 5.02373 18.2367 4.85182 18.0648C4.67991 17.8929 4.58333 17.6598 4.58333 17.4166V4.58331C4.58333 4.3402 4.67991 4.10704 4.85182 3.93513C5.02373 3.76322 5.25688 3.66665 5.5 3.66665H10.0833V6.41665C10.0833 7.14599 10.3731 7.84547 10.8888 8.36119C11.4045 8.87691 12.104 9.16665 12.8333 9.16665H15.5833V10.0833C15.5833 10.3264 15.6799 10.5596 15.8518 10.7315C16.0237 10.9034 16.2569 11 16.5 11C16.7431 11 16.9763 10.9034 17.1482 10.7315C17.3201 10.5596 17.4167 10.3264 17.4167 10.0833V8.24998C17.4167 8.24998 17.4167 8.24998 17.4167 8.19498C17.4071 8.11077 17.3887 8.02781 17.3617 7.94748C17.3656 7.92012 17.3656 7.89234 17.3617 7.86498C17.3176 7.77073 17.2588 7.68409 17.1875 7.60831L11.6875 2.10831C11.6117 2.03701 11.5251 1.97822 11.4308 1.93415H11.3392C11.2527 1.88779 11.1601 1.85385 11.0642 1.83331H5.5C4.77065 1.83331 4.07118 2.12304 3.55546 2.63877C3.03973 3.15449 2.75 3.85397 2.75 4.58331V17.4166C2.75 18.146 3.03973 18.8455 3.55546 19.3612C4.07118 19.8769 4.77065 20.1666 5.5 20.1666H14.6667C15.396 20.1666 16.0955 19.8769 16.6112 19.3612C17.1269 18.8455 17.4167 18.146 17.4167 17.4166C17.4167 17.1735 17.3201 16.9404 17.1482 16.7685C16.9763 16.5966 16.7431 16.5 16.5 16.5ZM11.9167 4.95915L14.2908 7.33331H12.8333C12.5902 7.33331 12.3571 7.23674 12.1852 7.06483C12.0132 6.89292 11.9167 6.65976 11.9167 6.41665V4.95915ZM18.3333 12.8333H16.0417C15.921 12.8326 15.8014 12.8557 15.6898 12.9014C15.5781 12.947 15.4765 13.0142 15.3908 13.0991L14.2542 14.245L11.6875 11.3116C11.6049 11.2171 11.5038 11.1404 11.3904 11.0865C11.277 11.0326 11.1538 11.0026 11.0283 10.9983C10.9028 10.994 10.7778 11.0155 10.6609 11.0616C10.5441 11.1076 10.438 11.1771 10.3492 11.2658L8.79083 12.8333H7.33333C7.09022 12.8333 6.85706 12.9299 6.68515 13.1018C6.51324 13.2737 6.41667 13.5069 6.41667 13.75C6.41667 13.9931 6.51324 14.2263 6.68515 14.3982C6.85706 14.5701 7.09022 14.6666 7.33333 14.6666H9.16667C9.28731 14.6673 9.4069 14.6442 9.51858 14.5986C9.63027 14.553 9.73185 14.4858 9.8175 14.4008L11 13.255L13.5667 16.1883C13.6495 16.2827 13.7508 16.3591 13.8643 16.4127C13.9778 16.4663 14.1012 16.496 14.2267 16.5C14.3473 16.5007 14.4669 16.4776 14.5786 16.4319C14.6903 16.3863 14.7918 16.3191 14.8775 16.2341L16.4175 14.6666H18.3333C18.5764 14.6666 18.8096 14.5701 18.9815 14.3982C19.1534 14.2263 19.25 13.9931 19.25 13.75C19.25 13.5069 19.1534 13.2737 18.9815 13.1018C18.8096 12.9299 18.5764 12.8333 18.3333 12.8333Z" fill="white" fill-opacity="0.4"/>
</svg>
