<svg width="22" height="22" viewBox="0 0 22 22" fill="none" xmlns="http://www.w3.org/2000/svg">
<path d="M18.3334 7.33334L12.8334 2.51167C12.3292 2.06071 11.6765 1.8114 11.0001 1.8114C10.3236 1.8114 9.67094 2.06071 9.16675 2.51167L3.66675 7.33334C3.37559 7.59374 3.14325 7.91318 2.98519 8.2704C2.82713 8.62761 2.74698 9.0144 2.75009 9.40501V17.4167C2.75009 18.146 3.03982 18.8455 3.55554 19.3612C4.07127 19.8769 4.77074 20.1667 5.50009 20.1667H16.5001C17.2294 20.1667 17.9289 19.8769 18.4446 19.3612C18.9604 18.8455 19.2501 18.146 19.2501 17.4167V9.39584C19.2519 9.00677 19.1711 8.62175 19.0131 8.26621C18.8551 7.91068 18.6234 7.59272 18.3334 7.33334ZM12.8334 18.3333H9.16675V13.75C9.16675 13.5069 9.26333 13.2737 9.43524 13.1018C9.60715 12.9299 9.84031 12.8333 10.0834 12.8333H11.9168C12.1599 12.8333 12.393 12.9299 12.5649 13.1018C12.7368 13.2737 12.8334 13.5069 12.8334 13.75V18.3333ZM17.4168 17.4167C17.4168 17.6598 17.3202 17.8929 17.1483 18.0649C16.9764 18.2368 16.7432 18.3333 16.5001 18.3333H14.6668V13.75C14.6668 13.0207 14.377 12.3212 13.8613 11.8055C13.3456 11.2897 12.6461 11 11.9168 11H10.0834C9.35407 11 8.6546 11.2897 8.13888 11.8055C7.62315 12.3212 7.33342 13.0207 7.33342 13.75V18.3333H5.50009C5.25697 18.3333 5.02381 18.2368 4.85191 18.0649C4.68 17.8929 4.58342 17.6598 4.58342 17.4167V9.39584C4.58359 9.26569 4.61146 9.13706 4.6652 9.01852C4.71894 8.89998 4.79731 8.79424 4.89509 8.70834L10.3951 3.89584C10.5624 3.74888 10.7774 3.66783 11.0001 3.66783C11.2228 3.66783 11.4378 3.74888 11.6051 3.89584L17.1051 8.70834C17.2029 8.79424 17.2812 8.89998 17.335 9.01852C17.3887 9.13706 17.4166 9.26569 17.4168 9.39584V17.4167Z" fill="white"/>
</svg>
