<svg width="22" height="22" viewBox="0 0 22 22" fill="none" xmlns="http://www.w3.org/2000/svg">
<path d="M3.40072 14.9325C3.31354 14.849 3.21074 14.7836 3.09822 14.74C2.87505 14.6483 2.62473 14.6483 2.40155 14.74C2.28903 14.7836 2.18623 14.849 2.09905 14.9325C2.0156 15.0197 1.95018 15.1225 1.90655 15.235C1.83636 15.4019 1.81718 15.5859 1.85144 15.7637C1.8857 15.9416 1.97186 16.1053 2.09905 16.2342C2.18816 16.3151 2.29047 16.3802 2.40155 16.4267C2.51128 16.4752 2.62992 16.5002 2.74989 16.5002C2.86985 16.5002 2.9885 16.4752 3.09822 16.4267C3.20931 16.3802 3.31162 16.3151 3.40072 16.2342C3.52792 16.1053 3.61408 15.9416 3.64834 15.7637C3.6826 15.5859 3.66342 15.4019 3.59322 15.235C3.54959 15.1225 3.48417 15.0197 3.40072 14.9325ZM6.41655 7.33333H19.2499C19.493 7.33333 19.7262 7.23676 19.8981 7.06485C20.07 6.89294 20.1666 6.65978 20.1666 6.41667C20.1666 6.17355 20.07 5.94039 19.8981 5.76849C19.7262 5.59658 19.493 5.5 19.2499 5.5H6.41655C6.17344 5.5 5.94028 5.59658 5.76837 5.76849C5.59646 5.94039 5.49989 6.17355 5.49989 6.41667C5.49989 6.65978 5.59646 6.89294 5.76837 7.06485C5.94028 7.23676 6.17344 7.33333 6.41655 7.33333ZM3.40072 10.3492C3.27182 10.222 3.10812 10.1358 2.9303 10.1015C2.75248 10.0673 2.56849 10.0865 2.40155 10.1567C2.29047 10.2031 2.18816 10.2682 2.09905 10.3492C2.0156 10.4363 1.95018 10.5391 1.90655 10.6517C1.85806 10.7614 1.83301 10.88 1.83301 11C1.83301 11.12 1.85806 11.2386 1.90655 11.3483C1.95298 11.4594 2.01808 11.5617 2.09905 11.6508C2.18816 11.7318 2.29047 11.7969 2.40155 11.8433C2.51128 11.8918 2.62992 11.9169 2.74989 11.9169C2.86985 11.9169 2.9885 11.8918 3.09822 11.8433C3.20931 11.7969 3.31162 11.7318 3.40072 11.6508C3.48169 11.5617 3.5468 11.4594 3.59322 11.3483C3.64172 11.2386 3.66677 11.12 3.66677 11C3.66677 10.88 3.64172 10.7614 3.59322 10.6517C3.54959 10.5391 3.48417 10.4363 3.40072 10.3492ZM19.2499 10.0833H6.41655C6.17344 10.0833 5.94028 10.1799 5.76837 10.3518C5.59646 10.5237 5.49989 10.7569 5.49989 11C5.49989 11.2431 5.59646 11.4763 5.76837 11.6482C5.94028 11.8201 6.17344 11.9167 6.41655 11.9167H19.2499C19.493 11.9167 19.7262 11.8201 19.8981 11.6482C20.07 11.4763 20.1666 11.2431 20.1666 11C20.1666 10.7569 20.07 10.5237 19.8981 10.3518C19.7262 10.1799 19.493 10.0833 19.2499 10.0833ZM3.40072 5.76583C3.31354 5.68238 3.21074 5.61696 3.09822 5.57333C2.93129 5.50314 2.7473 5.48396 2.56948 5.51822C2.39165 5.55248 2.22796 5.63864 2.09905 5.76583C2.01808 5.85493 1.95298 5.95725 1.90655 6.06833C1.85806 6.17806 1.83301 6.2967 1.83301 6.41667C1.83301 6.53663 1.85806 6.65527 1.90655 6.765C1.95298 6.87609 2.01808 6.9784 2.09905 7.0675C2.18816 7.14847 2.29047 7.21358 2.40155 7.26C2.56849 7.3302 2.75248 7.34938 2.9303 7.31512C3.10812 7.28086 3.27182 7.19469 3.40072 7.0675C3.48169 6.9784 3.5468 6.87609 3.59322 6.765C3.64172 6.65527 3.66677 6.53663 3.66677 6.41667C3.66677 6.2967 3.64172 6.17806 3.59322 6.06833C3.5468 5.95725 3.48169 5.85493 3.40072 5.76583ZM19.2499 14.6667H6.41655C6.17344 14.6667 5.94028 14.7632 5.76837 14.9352C5.59646 15.1071 5.49989 15.3402 5.49989 15.5833C5.49989 15.8264 5.59646 16.0596 5.76837 16.2315C5.94028 16.4034 6.17344 16.5 6.41655 16.5H19.2499C19.493 16.5 19.7262 16.4034 19.8981 16.2315C20.07 16.0596 20.1666 15.8264 20.1666 15.5833C20.1666 15.3402 20.07 15.1071 19.8981 14.9352C19.7262 14.7632 19.493 14.6667 19.2499 14.6667Z" fill="white" fill-opacity="0.4"/>
</svg>
