<svg width="20" height="20" viewBox="0 0 20 20" fill="none" xmlns="http://www.w3.org/2000/svg">
<path d="M14.1668 7.50002V5.83335C14.1668 4.72829 13.7278 3.66848 12.9464 2.88708C12.165 2.10567 11.1052 1.66669 10.0002 1.66669C8.89509 1.66669 7.83529 2.10567 7.05388 2.88708C6.27248 3.66848 5.8335 4.72829 5.8335 5.83335V7.50002C5.17045 7.50002 4.53457 7.76341 4.06573 8.23225C3.59689 8.70109 3.3335 9.33698 3.3335 10V15.8334C3.3335 16.4964 3.59689 17.1323 4.06573 17.6011C4.53457 18.07 5.17045 18.3334 5.8335 18.3334H14.1668C14.8299 18.3334 15.4658 18.07 15.9346 17.6011C16.4034 17.1323 16.6668 16.4964 16.6668 15.8334V10C16.6668 9.33698 16.4034 8.70109 15.9346 8.23225C15.4658 7.76341 14.8299 7.50002 14.1668 7.50002ZM7.50016 5.83335C7.50016 5.17031 7.76355 4.53443 8.2324 4.06559C8.70124 3.59675 9.33712 3.33335 10.0002 3.33335C10.6632 3.33335 11.2991 3.59675 11.7679 4.06559C12.2368 4.53443 12.5002 5.17031 12.5002 5.83335V7.50002H7.50016V5.83335ZM15.0002 15.8334C15.0002 16.0544 14.9124 16.2663 14.7561 16.4226C14.5998 16.5789 14.3878 16.6667 14.1668 16.6667H5.8335C5.61248 16.6667 5.40052 16.5789 5.24424 16.4226C5.08796 16.2663 5.00016 16.0544 5.00016 15.8334V10C5.00016 9.77901 5.08796 9.56705 5.24424 9.41077C5.40052 9.25449 5.61248 9.16669 5.8335 9.16669H14.1668C14.3878 9.16669 14.5998 9.25449 14.7561 9.41077C14.9124 9.56705 15.0002 9.77901 15.0002 10V15.8334Z" fill="#959595"/>
</svg>
