<svg width="20" height="20" viewBox="0 0 20 20" fill="none" xmlns="http://www.w3.org/2000/svg">
<path fill-rule="evenodd" clip-rule="evenodd" d="M9.9999 0.833313C8.45281 0.833313 6.96908 1.44789 5.87511 2.54186C4.78115 3.63582 4.16657 5.11955 4.16657 6.66665C4.16657 9.46053 3.56901 11.1955 3.01832 12.2051C2.74183 12.712 2.47259 13.0445 2.28557 13.242C2.19184 13.3409 2.11818 13.4065 2.07384 13.4435C2.05165 13.4619 2.03677 13.4733 2.03036 13.4781L2.02798 13.4798C1.72924 13.685 1.59704 14.0604 1.70233 14.4081C1.80874 14.7596 2.13268 15 2.4999 15H17.4999C17.8671 15 18.1911 14.7596 18.2975 14.4081C18.4028 14.0604 18.2706 13.685 17.9718 13.4798L17.9694 13.4781C17.963 13.4733 17.9482 13.4619 17.926 13.4435C17.8816 13.4065 17.808 13.3409 17.7142 13.242C17.5272 13.0445 17.258 12.712 16.9815 12.2051C16.4308 11.1955 15.8332 9.46053 15.8332 6.66665C15.8332 5.11955 15.2187 3.63582 14.1247 2.54186C13.0307 1.44789 11.547 0.833313 9.9999 0.833313ZM15.5183 13.0032C15.5817 13.1195 15.6454 13.2294 15.7088 13.3333H4.29101C4.35441 13.2294 4.41807 13.1195 4.48148 13.0032C5.18079 11.7211 5.83324 9.7061 5.83324 6.66665C5.83324 5.56158 6.27222 4.50177 7.05362 3.72037C7.83503 2.93897 8.89483 2.49998 9.9999 2.49998C11.105 2.49998 12.1648 2.93897 12.9462 3.72037C13.7276 4.50177 14.1666 5.56158 14.1666 6.66665C14.1666 9.7061 14.819 11.7211 15.5183 13.0032ZM9.27908 17.0819C9.04815 16.6838 8.53821 16.5482 8.14011 16.7792C7.742 17.0101 7.60648 17.5201 7.83742 17.9182C8.05718 18.297 8.37261 18.6115 8.75213 18.8301C9.13165 19.0487 9.56194 19.1637 9.99991 19.1637C10.4379 19.1637 10.8682 19.0487 11.2477 18.8301C11.6272 18.6115 11.9427 18.297 12.1624 17.9182C12.3933 17.5201 12.2578 17.0101 11.8597 16.7792C11.4616 16.5482 10.9517 16.6838 10.7207 17.0819C10.6475 17.2082 10.5423 17.313 10.4158 17.3858C10.2893 17.4587 10.1459 17.4971 9.99991 17.4971C9.85392 17.4971 9.71049 17.4587 9.58399 17.3858C9.45748 17.313 9.35234 17.2082 9.27908 17.0819Z" fill="black"/>
</svg>
