<svg width="22" height="22" viewBox="0 0 22 22" fill="none" xmlns="http://www.w3.org/2000/svg">
<path d="M17.4168 5.95835H14.6668V5.04169C14.6668 4.31234 14.3771 3.61287 13.8614 3.09714C13.3456 2.58142 12.6462 2.29169 11.9168 2.29169H10.0835C9.35415 2.29169 8.65468 2.58142 8.13895 3.09714C7.62323 3.61287 7.3335 4.31234 7.3335 5.04169V5.95835H4.5835C3.85415 5.95835 3.15468 6.24809 2.63895 6.76381C2.12323 7.27954 1.8335 7.97901 1.8335 8.70835V16.9584C1.8335 17.6877 2.12323 18.3872 2.63895 18.9029C3.15468 19.4186 3.85415 19.7084 4.5835 19.7084H17.4168C18.1462 19.7084 18.8456 19.4186 19.3614 18.9029C19.8771 18.3872 20.1668 17.6877 20.1668 16.9584V8.70835C20.1668 7.97901 19.8771 7.27954 19.3614 6.76381C18.8456 6.24809 18.1462 5.95835 17.4168 5.95835ZM9.16683 5.04169C9.16683 4.79857 9.26341 4.56541 9.43531 4.39351C9.60722 4.2216 9.84038 4.12502 10.0835 4.12502H11.9168C12.1599 4.12502 12.3931 4.2216 12.565 4.39351C12.7369 4.56541 12.8335 4.79857 12.8335 5.04169V5.95835H9.16683V5.04169ZM18.3335 16.9584C18.3335 17.2015 18.2369 17.4346 18.065 17.6065C17.8931 17.7784 17.6599 17.875 17.4168 17.875H4.5835C4.34038 17.875 4.10722 17.7784 3.93531 17.6065C3.76341 17.4346 3.66683 17.2015 3.66683 16.9584V12.3292H6.41683V13.2917C6.41683 13.5348 6.51341 13.768 6.68531 13.9399C6.85722 14.1118 7.09038 14.2084 7.3335 14.2084C7.57661 14.2084 7.80977 14.1118 7.98168 13.9399C8.15359 13.768 8.25016 13.5348 8.25016 13.2917V12.3292H13.7502V13.2917C13.7502 13.5348 13.8467 13.768 14.0186 13.9399C14.1906 14.1118 14.4237 14.2084 14.6668 14.2084C14.9099 14.2084 15.1431 14.1118 15.315 13.9399C15.4869 13.768 15.5835 13.5348 15.5835 13.2917V12.3292H18.3335V16.9584ZM18.3335 10.5417H3.66683V8.70835C3.66683 8.46524 3.76341 8.23208 3.93531 8.06017C4.10722 7.88826 4.34038 7.79169 4.5835 7.79169H17.4168C17.6599 7.79169 17.8931 7.88826 18.065 8.06017C18.2369 8.23208 18.3335 8.46524 18.3335 8.70835V10.5417Z" fill="white" fill-opacity="0.4"/>
</svg>
