<svg width="22" height="22" viewBox="0 0 22 22" fill="none" xmlns="http://www.w3.org/2000/svg">
<path d="M11.2748 11.2016C11.764 10.7783 12.1563 10.2546 12.4251 9.66625C12.694 9.07788 12.8332 8.43855 12.8332 7.79165C12.8332 6.57607 12.3503 5.41028 11.4907 4.55074C10.6312 3.6912 9.46541 3.20831 8.24984 3.20831C7.03426 3.20831 5.86847 3.6912 5.00893 4.55074C4.14939 5.41028 3.6665 6.57607 3.6665 7.79165C3.6665 8.43855 3.80566 9.07788 4.07454 9.66625C4.34342 10.2546 4.73572 10.7783 5.22484 11.2016C3.94163 11.7827 2.85293 12.721 2.0889 13.9045C1.32487 15.0879 0.917853 16.4663 0.916504 17.875C0.916504 18.1181 1.01308 18.3513 1.18499 18.5232C1.3569 18.6951 1.59006 18.7916 1.83317 18.7916C2.07629 18.7916 2.30944 18.6951 2.48135 18.5232C2.65326 18.3513 2.74984 18.1181 2.74984 17.875C2.74984 16.4163 3.3293 15.0173 4.36075 13.9859C5.3922 12.9544 6.79115 12.375 8.24984 12.375C9.70853 12.375 11.1075 12.9544 12.1389 13.9859C13.1704 15.0173 13.7498 16.4163 13.7498 17.875C13.7498 18.1181 13.8464 18.3513 14.0183 18.5232C14.1902 18.6951 14.4234 18.7916 14.6665 18.7916C14.9096 18.7916 15.1428 18.6951 15.3147 18.5232C15.4866 18.3513 15.5832 18.1181 15.5832 17.875C15.5818 16.4663 15.1748 15.0879 14.4108 13.9045C13.6467 12.721 12.558 11.7827 11.2748 11.2016ZM8.24984 10.5416C7.70594 10.5416 7.17425 10.3804 6.72202 10.0782C6.26978 9.77601 5.91731 9.34652 5.70917 8.84403C5.50103 8.34153 5.44657 7.7886 5.55268 7.25515C5.65879 6.7217 5.9207 6.2317 6.30529 5.8471C6.68989 5.46251 7.17989 5.2006 7.71334 5.09449C8.24679 4.98838 8.79972 5.04284 9.30222 5.25098C9.80471 5.45912 10.2342 5.81159 10.5364 6.26383C10.8386 6.71606 10.9998 7.24775 10.9998 7.79165C10.9998 8.52099 10.7101 9.22047 10.1944 9.73619C9.67866 10.2519 8.97918 10.5416 8.24984 10.5416ZM17.1782 10.835C17.7648 10.1744 18.148 9.35828 18.2817 8.48496C18.4153 7.61163 18.2937 6.7183 17.9315 5.91248C17.5692 5.10666 16.9818 4.42271 16.2399 3.94295C15.4981 3.46319 14.6333 3.20808 13.7498 3.20831C13.5067 3.20831 13.2736 3.30489 13.1017 3.4768C12.9297 3.64871 12.8332 3.88186 12.8332 4.12498C12.8332 4.36809 12.9297 4.60125 13.1017 4.77316C13.2736 4.94507 13.5067 5.04165 13.7498 5.04165C14.4792 5.04165 15.1787 5.33138 15.6944 5.8471C16.2101 6.36283 16.4998 7.0623 16.4998 7.79165C16.4985 8.27312 16.3709 8.74581 16.1296 9.16245C15.8883 9.57909 15.5418 9.92508 15.1248 10.1658C14.9889 10.2442 14.8754 10.3562 14.7952 10.491C14.7149 10.6258 14.6706 10.779 14.6665 10.9358C14.6627 11.0914 14.6985 11.2455 14.7707 11.3834C14.8429 11.5213 14.949 11.6386 15.079 11.7241L15.4365 11.9625L15.5557 12.0266C16.6606 12.5507 17.5928 13.3796 18.2424 14.4158C18.892 15.4519 19.232 16.6521 19.2223 17.875C19.2223 18.1181 19.3189 18.3513 19.4908 18.5232C19.6627 18.6951 19.8959 18.7916 20.139 18.7916C20.3821 18.7916 20.6153 18.6951 20.7872 18.5232C20.9591 18.3513 21.0557 18.1181 21.0557 17.875C21.0632 16.4683 20.7108 15.083 20.0322 13.8509C19.3535 12.6187 18.3711 11.5805 17.1782 10.835Z" fill="white" fill-opacity="0.4"/>
</svg>
